<svg width="179" height="45" viewBox="0 0 179 45" fill="none" xmlns="http://www.w3.org/2000/svg">
<mask id="mask0_23_491" style="mask-type:alpha" maskUnits="userSpaceOnUse" x="1" y="10" width="178" height="32">
<path d="M1.07699 22.38C1.07699 20.3 1.50699 18.45 2.36699 16.83C3.24699 15.19 4.48699 13.92 6.08699 13.02C7.68699 12.1 9.52699 11.64 11.607 11.64C14.247 11.64 16.467 12.35 18.267 13.77C20.067 15.17 21.227 17.08 21.747 19.5H15.417C15.037 18.7 14.507 18.09 13.827 17.67C13.167 17.25 12.397 17.04 11.517 17.04C10.157 17.04 9.06699 17.53 8.24699 18.51C7.44699 19.47 7.04699 20.76 7.04699 22.38C7.04699 24.02 7.44699 25.33 8.24699 26.31C9.06699 27.27 10.157 27.75 11.517 27.75C12.397 27.75 13.167 27.54 13.827 27.12C14.507 26.7 15.037 26.09 15.417 25.29H21.747C21.227 27.71 20.067 29.63 18.267 31.05C16.467 32.45 14.247 33.15 11.607 33.15C9.52699 33.15 7.68699 32.7 6.08699 31.8C4.48699 30.88 3.24699 29.61 2.36699 27.99C1.50699 26.35 1.07699 24.48 1.07699 22.38ZM40.4014 16.02C42.3214 16.02 43.8414 16.67 44.9614 17.97C46.1014 19.25 46.6714 20.99 46.6714 23.19V33H40.7914V23.97C40.7914 23.01 40.5414 22.26 40.0414 21.72C39.5414 21.16 38.8714 20.88 38.0314 20.88C37.1514 20.88 36.4614 21.16 35.9614 21.72C35.4614 22.26 35.2114 23.01 35.2114 23.97V33H29.3314V10.8H35.2114V18.57C35.7314 17.81 36.4314 17.2 37.3114 16.74C38.2114 16.26 39.2414 16.02 40.4014 16.02ZM72.8178 16.17L62.1378 41.01H55.7478L59.7678 32.28L52.8678 16.17H59.4078L62.9478 25.71L66.3678 16.17H72.8178ZM87.136 33.21C84.676 33.21 82.656 32.63 81.076 31.47C79.496 30.29 78.646 28.61 78.526 26.43H84.796C84.856 27.17 85.076 27.71 85.456 28.05C85.836 28.39 86.326 28.56 86.926 28.56C87.466 28.56 87.906 28.43 88.246 28.17C88.606 27.89 88.786 27.51 88.786 27.03C88.786 26.41 88.496 25.93 87.916 25.59C87.336 25.25 86.396 24.87 85.096 24.45C83.716 23.99 82.596 23.55 81.736 23.13C80.896 22.69 80.156 22.06 79.516 21.24C78.896 20.4 78.586 19.31 78.586 17.97C78.586 16.61 78.926 15.45 79.606 14.49C80.286 13.51 81.226 12.77 82.426 12.27C83.626 11.77 84.986 11.52 86.506 11.52C88.966 11.52 90.926 12.1 92.386 13.26C93.866 14.4 94.656 16.01 94.756 18.09H88.366C88.346 17.45 88.146 16.97 87.766 16.65C87.406 16.33 86.936 16.17 86.356 16.17C85.916 16.17 85.556 16.3 85.276 16.56C84.996 16.82 84.856 17.19 84.856 17.67C84.856 18.07 85.006 18.42 85.306 18.72C85.626 19 86.016 19.25 86.476 19.47C86.936 19.67 87.616 19.93 88.516 20.25C89.856 20.71 90.956 21.17 91.816 21.63C92.696 22.07 93.446 22.7 94.066 23.52C94.706 24.32 95.026 25.34 95.026 26.58C95.026 27.84 94.706 28.97 94.066 29.97C93.446 30.97 92.536 31.76 91.336 32.34C90.156 32.92 88.756 33.21 87.136 33.21ZM112.489 27.99V33H109.939C105.639 33 103.489 30.87 103.489 26.61V21.06H101.419V16.17H103.489V12.09H109.399V16.17H112.459V21.06H109.399V26.7C109.399 27.16 109.499 27.49 109.699 27.69C109.919 27.89 110.279 27.99 110.779 27.99H112.489ZM127.816 33.21C126.136 33.21 124.626 32.86 123.286 32.16C121.966 31.46 120.926 30.46 120.166 29.16C119.406 27.86 119.026 26.33 119.026 24.57C119.026 22.83 119.406 21.31 120.166 20.01C120.946 18.71 121.996 17.71 123.316 17.01C124.656 16.31 126.166 15.96 127.846 15.96C129.526 15.96 131.026 16.31 132.346 17.01C133.686 17.71 134.736 18.71 135.496 20.01C136.276 21.31 136.666 22.83 136.666 24.57C136.666 26.31 136.276 27.84 135.496 29.16C134.736 30.46 133.686 31.46 132.346 32.16C131.006 32.86 129.496 33.21 127.816 33.21ZM127.816 28.11C128.636 28.11 129.316 27.81 129.856 27.21C130.416 26.59 130.696 25.71 130.696 24.57C130.696 23.43 130.416 22.56 129.856 21.96C129.316 21.36 128.646 21.06 127.846 21.06C127.046 21.06 126.376 21.36 125.836 21.96C125.296 22.56 125.026 23.43 125.026 24.57C125.026 25.73 125.286 26.61 125.806 27.21C126.326 27.81 126.996 28.11 127.816 28.11ZM149.739 19.14C150.399 18.18 151.199 17.42 152.139 16.86C153.079 16.3 154.089 16.02 155.169 16.02V22.29H153.519C152.239 22.29 151.289 22.54 150.669 23.04C150.049 23.54 149.739 24.41 149.739 25.65V33H143.859V16.17H149.739V19.14ZM178.157 24.39C178.157 24.85 178.127 25.31 178.067 25.77H166.937C166.997 26.69 167.247 27.38 167.687 27.84C168.147 28.28 168.727 28.5 169.427 28.5C170.407 28.5 171.107 28.06 171.527 27.18H177.797C177.537 28.34 177.027 29.38 176.267 30.3C175.527 31.2 174.587 31.91 173.447 32.43C172.307 32.95 171.047 33.21 169.667 33.21C168.007 33.21 166.527 32.86 165.227 32.16C163.947 31.46 162.937 30.46 162.197 29.16C161.477 27.86 161.117 26.33 161.117 24.57C161.117 22.81 161.477 21.29 162.197 20.01C162.917 18.71 163.917 17.71 165.197 17.01C166.497 16.31 167.987 15.96 169.667 15.96C171.327 15.96 172.797 16.3 174.077 16.98C175.357 17.66 176.357 18.64 177.077 19.92C177.797 21.18 178.157 22.67 178.157 24.39ZM172.157 22.92C172.157 22.2 171.917 21.64 171.437 21.24C170.957 20.82 170.357 20.61 169.637 20.61C168.917 20.61 168.327 20.81 167.867 21.21C167.407 21.59 167.107 22.16 166.967 22.92H172.157Z" fill="black"/>
</mask>
<g mask="url(#mask0_23_491)">
<path d="M-28 -4.84131H95L85.5 25.6587L77.5 51.6587H-28V-4.84131Z" fill="#F2635F"/>
<path d="M95 -5H233V53L77.5 51.5L95 -5Z" fill="#55D983"/>
</g>
</svg>
